<?xml version="1.0" encoding="UTF-8"?>
<svg width="700pt" height="700pt" version="1.1" viewBox="0 0 700 700" xmlns="http://www.w3.org/2000/svg" xmlns:xlink="http://www.w3.org/1999/xlink">
 <defs>
  <symbol id="v" overflow="visible">
   <path d="m4.6406-0.28125c-0.24219 0.125-0.49219 0.21875-0.75 0.28125-0.25 0.0625-0.51562 0.09375-0.79688 0.09375-0.84375 0-1.5156-0.23438-2.0156-0.70312-0.49219-0.46875-0.73438-1.1094-0.73438-1.9219 0-0.80078 0.24219-1.4375 0.73438-1.9062 0.5-0.47656 1.1719-0.71875 2.0156-0.71875 0.28125 0 0.54688 0.039062 0.79688 0.10938 0.25781 0.0625 0.50781 0.15625 0.75 0.28125v1.0469c-0.24219-0.16406-0.48047-0.28516-0.71875-0.35938-0.23047-0.082031-0.47656-0.125-0.73438-0.125-0.46094 0-0.82422 0.15234-1.0938 0.45312-0.27344 0.29297-0.40625 0.69922-0.40625 1.2188 0 0.53125 0.13281 0.94922 0.40625 1.25 0.26953 0.29297 0.63281 0.4375 1.0938 0.4375 0.25781 0 0.50391-0.035156 0.73438-0.10938 0.23828-0.082031 0.47656-0.20703 0.71875-0.375z"/>
  </symbol>
  <symbol id="d" overflow="visible">
   <path d="m3.4062-2.7656c-0.11719-0.039063-0.22656-0.070313-0.32812-0.09375-0.10547-0.03125-0.21094-0.046875-0.3125-0.046875-0.3125 0-0.55469 0.10156-0.71875 0.29688-0.16797 0.19922-0.25 0.48438-0.25 0.85938v1.75h-1.2188v-3.7969h1.2188v0.625c0.15625-0.25 0.33203-0.42969 0.53125-0.54688 0.20703-0.11328 0.45312-0.17188 0.73438-0.17188 0.039062 0 0.082031 0.007813 0.125 0.015625 0.050781 0 0.11719 0.007812 0.20312 0.015625z"/>
  </symbol>
  <symbol id="b" overflow="visible">
   <path d="m4.375-1.9062v0.34375h-2.8438c0.03125 0.28125 0.13281 0.49609 0.3125 0.64062 0.17578 0.14844 0.42188 0.21875 0.73438 0.21875 0.25781 0 0.51953-0.035156 0.78125-0.10938 0.26953-0.082031 0.54688-0.20312 0.82812-0.35938v0.9375c-0.28125 0.11719-0.57031 0.19922-0.85938 0.25-0.28125 0.050781-0.57031 0.078125-0.85938 0.078125-0.6875 0-1.2266-0.17188-1.6094-0.51562-0.375-0.35156-0.5625-0.84375-0.5625-1.4688s0.1875-1.1133 0.5625-1.4688c0.375-0.35156 0.89062-0.53125 1.5469-0.53125 0.59375 0 1.0664 0.18359 1.4219 0.54688 0.36328 0.35547 0.54688 0.83594 0.54688 1.4375zm-1.25-0.40625c0-0.22656-0.070312-0.41016-0.20312-0.54688-0.13672-0.14453-0.3125-0.21875-0.53125-0.21875-0.23047 0-0.41797 0.070313-0.5625 0.20312-0.14844 0.125-0.24219 0.3125-0.28125 0.5625z"/>
  </symbol>
  <symbol id="l" overflow="visible">
   <path d="m2.2812-1.7031c-0.25 0-0.44531 0.042969-0.57812 0.125-0.125 0.085937-0.1875 0.21094-0.1875 0.375 0 0.15625 0.050781 0.28125 0.15625 0.375 0.10156 0.085937 0.25 0.125 0.4375 0.125 0.22656 0 0.41406-0.082031 0.5625-0.25 0.15625-0.16406 0.23438-0.36719 0.23438-0.60938v-0.14062zm1.8594-0.46875v2.1719h-1.2344v-0.5625c-0.15625 0.23047-0.33984 0.39844-0.54688 0.5-0.19922 0.10156-0.44531 0.15625-0.73438 0.15625-0.39844 0-0.71875-0.11328-0.96875-0.34375-0.24219-0.22656-0.35938-0.52344-0.35938-0.89062 0-0.44531 0.14844-0.76953 0.45312-0.96875 0.3125-0.20703 0.79688-0.3125 1.4531-0.3125h0.70312v-0.10938c0-0.1875-0.078125-0.32031-0.23438-0.40625-0.14844-0.09375-0.375-0.14062-0.6875-0.14062-0.26172 0-0.50781 0.027344-0.73438 0.078125-0.21875 0.054688-0.42969 0.13281-0.625 0.23438v-0.92188c0.25781-0.0625 0.51953-0.10938 0.78125-0.14062 0.26953-0.039063 0.53516-0.0625 0.79688-0.0625 0.67578 0 1.1641 0.13672 1.4688 0.40625 0.3125 0.27344 0.46875 0.71094 0.46875 1.3125z"/>
  </symbol>
  <symbol id="a" overflow="visible">
   <path d="m1.9062-4.875v1.0781h1.25v0.875h-1.25v1.6094c0 0.17969 0.03125 0.29688 0.09375 0.35938 0.070312 0.054687 0.21094 0.078125 0.42188 0.078125h0.625v0.875h-1.0312c-0.48047 0-0.82422-0.097656-1.0312-0.29688-0.19922-0.19531-0.29688-0.53516-0.29688-1.0156v-1.6094h-0.59375v-0.875h0.59375v-1.0781z"/>
  </symbol>
  <symbol id="f" overflow="visible">
   <path d="m3.1562-3.2344v-2.0312h1.2344v5.2656h-1.2344v-0.54688c-0.16797 0.21875-0.35156 0.38281-0.54688 0.48438-0.19922 0.10156-0.43359 0.15625-0.70312 0.15625-0.46094 0-0.83984-0.17969-1.1406-0.54688-0.30469-0.375-0.45312-0.85156-0.45312-1.4375 0-0.58203 0.14844-1.0625 0.45312-1.4375 0.30078-0.375 0.67969-0.5625 1.1406-0.5625 0.26953 0 0.50391 0.054687 0.70312 0.15625 0.19531 0.10547 0.37891 0.27344 0.54688 0.5zm-0.79688 2.4531c0.25781 0 0.45703-0.09375 0.59375-0.28125 0.13281-0.19531 0.20312-0.47266 0.20312-0.82812 0-0.36328-0.070312-0.64062-0.20312-0.82812-0.13672-0.1875-0.33594-0.28125-0.59375-0.28125-0.25 0-0.44922 0.09375-0.59375 0.28125-0.13672 0.1875-0.20312 0.46484-0.20312 0.82812 0 0.35547 0.066406 0.63281 0.20312 0.82812 0.14453 0.1875 0.34375 0.28125 0.59375 0.28125z"/>
  </symbol>
  <symbol id="k" overflow="visible">
   <path d="m2.6094-0.78125c0.25 0 0.44141-0.09375 0.57812-0.28125 0.14453-0.19531 0.21875-0.47266 0.21875-0.82812 0-0.36328-0.074219-0.64062-0.21875-0.82812-0.13672-0.1875-0.32812-0.28125-0.57812-0.28125-0.26172 0-0.46484 0.09375-0.60938 0.28125-0.13672 0.1875-0.20312 0.46484-0.20312 0.82812 0 0.35547 0.066406 0.63281 0.20312 0.82812 0.14453 0.1875 0.34766 0.28125 0.60938 0.28125zm-0.8125-2.4531c0.16406-0.22656 0.34766-0.39453 0.54688-0.5 0.20703-0.10156 0.44141-0.15625 0.70312-0.15625 0.46875 0 0.85156 0.1875 1.1562 0.5625 0.30078 0.375 0.45312 0.85547 0.45312 1.4375 0 0.58594-0.15234 1.0625-0.45312 1.4375-0.30469 0.36719-0.6875 0.54688-1.1562 0.54688-0.26172 0-0.49609-0.054688-0.70312-0.15625-0.19922-0.10156-0.38281-0.26562-0.54688-0.48438v0.54688h-1.2188v-5.2656h1.2188z"/>
  </symbol>
  <symbol id="e" overflow="visible">
   <path d="m0.078125-3.7969h1.2188l1.0156 2.5781 0.875-2.5781h1.2031l-1.5938 4.1562c-0.15625 0.42578-0.34375 0.72266-0.5625 0.89062-0.21094 0.16406-0.49219 0.25-0.84375 0.25h-0.70312v-0.79688h0.39062c0.19531 0 0.34375-0.039063 0.4375-0.10938 0.09375-0.0625 0.16406-0.17969 0.21875-0.34375l0.046875-0.10938z"/>
  </symbol>
  <symbol id="j" overflow="visible">
   <path d="m3.7031-0.92188h-2.0312l-0.32812 0.92188h-1.3125l1.875-5.0625h1.5625l1.8594 5.0625h-1.2969zm-1.7188-0.9375h1.3906l-0.6875-2.0156z"/>
  </symbol>
  <symbol id="i" overflow="visible">
   <path d="m4.0938-3.1562c0.15625-0.23828 0.33594-0.42188 0.54688-0.54688 0.21875-0.125 0.45312-0.1875 0.70312-0.1875 0.4375 0 0.76953 0.13672 1 0.40625 0.22656 0.27344 0.34375 0.66406 0.34375 1.1719v2.3125h-1.2344v-1.9844c0.007813-0.019531 0.015625-0.046875 0.015625-0.078125v-0.14062c0-0.26953-0.042969-0.46094-0.125-0.57812-0.074219-0.125-0.19922-0.1875-0.375-0.1875-0.23047 0-0.40625 0.09375-0.53125 0.28125s-0.19531 0.46484-0.20312 0.82812v1.8594h-1.2188v-1.9844c0-0.41406-0.039063-0.67969-0.10938-0.79688-0.074219-0.125-0.19922-0.1875-0.375-0.1875-0.24219 0-0.42188 0.10156-0.54688 0.29688-0.125 0.1875-0.1875 0.46094-0.1875 0.8125v1.8594h-1.2188v-3.7969h1.2188v0.5625c0.14453-0.21875 0.3125-0.37891 0.5-0.48438 0.19531-0.11328 0.41406-0.17188 0.65625-0.17188 0.25781 0 0.48828 0.070313 0.6875 0.20312 0.19531 0.125 0.34766 0.30469 0.45312 0.53125z"/>
  </symbol>
  <symbol id="h" overflow="visible">
   <path d="m4.3906-2.3125v2.3125h-1.2188v-1.7656c0-0.33203-0.007813-0.55469-0.015625-0.67188-0.011719-0.125-0.039062-0.21875-0.078125-0.28125-0.042969-0.082031-0.10547-0.14453-0.1875-0.1875-0.085937-0.039062-0.17969-0.0625-0.28125-0.0625-0.25 0-0.44922 0.10156-0.59375 0.29688-0.14844 0.1875-0.21875 0.46094-0.21875 0.8125v1.8594h-1.2188v-5.2656h1.2188v2.0312c0.17578-0.22656 0.36719-0.39453 0.57812-0.5 0.20703-0.10156 0.4375-0.15625 0.6875-0.15625 0.4375 0 0.76562 0.13672 0.98438 0.40625 0.22656 0.27344 0.34375 0.66406 0.34375 1.1719z"/>
  </symbol>
  <symbol id="u" overflow="visible">
   <path d="m3.5469-3.6719v0.92188c-0.26172-0.11328-0.51172-0.19531-0.75-0.25-0.24219-0.050781-0.46875-0.078125-0.6875-0.078125-0.23047 0-0.40234 0.03125-0.51562 0.09375-0.11719 0.054687-0.17188 0.13672-0.17188 0.25 0 0.10547 0.039063 0.18359 0.125 0.23438 0.09375 0.054688 0.25 0.089844 0.46875 0.10938l0.20312 0.03125c0.625 0.085937 1.0391 0.21484 1.25 0.39062 0.21875 0.17969 0.32812 0.46094 0.32812 0.84375 0 0.40625-0.15234 0.71484-0.45312 0.92188-0.29297 0.19922-0.73438 0.29688-1.3281 0.29688-0.25 0-0.51172-0.023438-0.78125-0.0625-0.26172-0.03125-0.53125-0.085938-0.8125-0.17188v-0.92188c0.23828 0.11719 0.48438 0.20312 0.73438 0.26562 0.25781 0.0625 0.51953 0.09375 0.78125 0.09375 0.23828 0 0.41406-0.03125 0.53125-0.09375 0.125-0.070313 0.1875-0.17188 0.1875-0.29688 0-0.11328-0.042969-0.19531-0.125-0.25-0.085938-0.050781-0.25-0.09375-0.5-0.125l-0.21875-0.015625c-0.53125-0.070313-0.90625-0.19531-1.125-0.375-0.21875-0.1875-0.32812-0.46875-0.32812-0.84375 0-0.39453 0.13281-0.69141 0.40625-0.89062 0.28125-0.19531 0.70703-0.29688 1.2812-0.29688 0.21875 0 0.44531 0.023437 0.6875 0.0625 0.25 0.03125 0.51953 0.085937 0.8125 0.15625z"/>
  </symbol>
  <symbol id="t" overflow="visible">
   <path d="m4.1562-4.8906v1.0625c-0.28125-0.125-0.55469-0.21875-0.8125-0.28125-0.26172-0.0625-0.51172-0.09375-0.75-0.09375-0.3125 0-0.54297 0.042969-0.6875 0.125-0.14844 0.085937-0.21875 0.21875-0.21875 0.40625 0 0.13672 0.046875 0.24219 0.14062 0.3125 0.10156 0.074219 0.28516 0.14062 0.54688 0.20312l0.5625 0.10938c0.5625 0.11719 0.95703 0.28906 1.1875 0.51562 0.23828 0.23047 0.35938 0.55469 0.35938 0.96875 0 0.5625-0.16797 0.98047-0.5 1.25-0.32422 0.27344-0.82812 0.40625-1.5156 0.40625-0.3125 0-0.63281-0.03125-0.95312-0.09375-0.32422-0.050781-0.64844-0.14062-0.96875-0.26562v-1.0938c0.32031 0.16797 0.63281 0.29688 0.9375 0.39062 0.30078 0.085938 0.58594 0.125 0.85938 0.125 0.28906 0 0.50781-0.046875 0.65625-0.14062 0.15625-0.09375 0.23438-0.22656 0.23438-0.40625 0-0.15625-0.054687-0.27344-0.15625-0.35938-0.10547-0.09375-0.30859-0.17188-0.60938-0.23438l-0.51562-0.125c-0.5-0.10156-0.87109-0.27344-1.1094-0.51562-0.23047-0.23828-0.34375-0.55469-0.34375-0.95312 0-0.50781 0.16016-0.89844 0.48438-1.1719 0.32031-0.26953 0.78906-0.40625 1.4062-0.40625 0.28125 0 0.56641 0.023438 0.85938 0.0625 0.28906 0.042969 0.59375 0.10938 0.90625 0.20312z"/>
  </symbol>
  <symbol id="g" overflow="visible">
   <path d="m0.54688-1.4844v-2.3125h1.2188v0.375c0 0.21094-0.007813 0.46875-0.015625 0.78125v0.625c0 0.30469 0.003906 0.52344 0.015625 0.65625 0.019531 0.13672 0.050781 0.23438 0.09375 0.29688 0.050781 0.074219 0.11328 0.13672 0.1875 0.1875 0.082031 0.042969 0.17578 0.0625 0.28125 0.0625 0.25 0 0.44531-0.097656 0.59375-0.29688 0.14453-0.19531 0.21875-0.46875 0.21875-0.8125v-1.875h1.2188v3.7969h-1.2188v-0.54688c-0.17969 0.21875-0.37109 0.38281-0.57812 0.48438-0.21094 0.10156-0.43359 0.15625-0.67188 0.15625-0.4375 0-0.77344-0.12891-1-0.39062-0.23047-0.26953-0.34375-0.66406-0.34375-1.1875z"/>
  </symbol>
  <symbol id="s" overflow="visible">
   <path d="m0.57812-3.7969h1.2188v3.7969h-1.2188zm0-1.4688h1.2188v0.98438h-1.2188z"/>
  </symbol>
  <symbol id="c" overflow="visible">
   <path d="m2.3906-3.0156c-0.27344 0-0.48047 0.10156-0.625 0.29688-0.13672 0.1875-0.20312 0.46484-0.20312 0.82812 0 0.36719 0.066406 0.64844 0.20312 0.84375 0.14453 0.1875 0.35156 0.28125 0.625 0.28125 0.25781 0 0.45703-0.09375 0.59375-0.28125 0.14453-0.19531 0.21875-0.47656 0.21875-0.84375 0-0.36328-0.074219-0.64062-0.21875-0.82812-0.13672-0.19531-0.33594-0.29688-0.59375-0.29688zm0-0.875c0.64453 0 1.1484 0.17969 1.5156 0.53125 0.375 0.35547 0.5625 0.84375 0.5625 1.4688s-0.1875 1.1172-0.5625 1.4688c-0.36719 0.34375-0.87109 0.51562-1.5156 0.51562-0.65625 0-1.1719-0.17188-1.5469-0.51562-0.36719-0.35156-0.54688-0.84375-0.54688-1.4688s0.17969-1.1133 0.54688-1.4688c0.375-0.35156 0.89062-0.53125 1.5469-0.53125z"/>
  </symbol>
  <symbol id="r" overflow="visible">
   <path d="m3.0781-5.2656v0.79688h-0.67188c-0.16797 0-0.28906 0.03125-0.35938 0.09375-0.0625 0.0625-0.09375 0.16797-0.09375 0.3125v0.26562h1.0312v0.875h-1.0312v2.9219h-1.2188v-2.9219h-0.60938v-0.875h0.60938v-0.26562c0-0.40625 0.11328-0.70703 0.34375-0.90625 0.22656-0.19531 0.58594-0.29688 1.0781-0.29688z"/>
  </symbol>
  <symbol id="q" overflow="visible">
   <path d="m0.64062-5.0625h1.4531l1.8438 3.4688v-3.4688h1.2344v5.0625h-1.4531l-1.8438-3.4688v3.4688h-1.2344z"/>
  </symbol>
  <symbol id="p" overflow="visible">
   <path d="m4.3906-2.3125v2.3125h-1.2188v-1.7656c0-0.33203-0.007813-0.55469-0.015625-0.67188-0.011719-0.125-0.039062-0.21875-0.078125-0.28125-0.042969-0.082031-0.10547-0.14453-0.1875-0.1875-0.085937-0.039062-0.17969-0.0625-0.28125-0.0625-0.25 0-0.44922 0.10156-0.59375 0.29688-0.14844 0.1875-0.21875 0.46094-0.21875 0.8125v1.8594h-1.2188v-3.7969h1.2188v0.5625c0.17578-0.22656 0.36719-0.39453 0.57812-0.5 0.20703-0.10156 0.4375-0.15625 0.6875-0.15625 0.4375 0 0.76562 0.13672 0.98438 0.40625 0.22656 0.27344 0.34375 0.66406 0.34375 1.1719z"/>
  </symbol>
  <symbol id="o" overflow="visible">
   <path d="m0.64062-5.0625h2.1562c0.64453 0 1.1406 0.14844 1.4844 0.4375 0.34375 0.28125 0.51562 0.6875 0.51562 1.2188s-0.17188 0.94531-0.51562 1.2344c-0.34375 0.28125-0.83984 0.42188-1.4844 0.42188h-0.85938v1.75h-1.2969zm1.2969 0.95312v1.4062h0.71875c0.25781 0 0.45703-0.054687 0.59375-0.17188 0.13281-0.125 0.20312-0.30078 0.20312-0.53125 0-0.22656-0.070313-0.39844-0.20312-0.51562-0.13672-0.125-0.33594-0.1875-0.59375-0.1875z"/>
  </symbol>
  <symbol id="n" overflow="visible">
   <path d="m0.57812-3.7969h1.2188v3.7344c0 0.5-0.125 0.88281-0.375 1.1562-0.24219 0.26953-0.58984 0.40625-1.0469 0.40625h-0.60938v-0.79688h0.21875c0.22656 0 0.38281-0.054687 0.46875-0.15625 0.082031-0.10547 0.125-0.30859 0.125-0.60938zm0-1.4688h1.2188v0.98438h-1.2188z"/>
  </symbol>
  <symbol id="m" overflow="visible">
   <path d="m3.6406-3.6719v0.98438c-0.15625-0.11328-0.32031-0.19531-0.48438-0.25-0.16797-0.050781-0.33984-0.078125-0.51562-0.078125-0.34375 0-0.60938 0.10156-0.79688 0.29688-0.1875 0.19922-0.28125 0.47656-0.28125 0.82812 0 0.35547 0.09375 0.63281 0.28125 0.82812 0.1875 0.19922 0.45312 0.29688 0.79688 0.29688 0.1875 0 0.36328-0.023437 0.53125-0.078125 0.17578-0.0625 0.33203-0.14844 0.46875-0.26562v1c-0.1875 0.074219-0.38281 0.125-0.57812 0.15625-0.1875 0.03125-0.38281 0.046875-0.57812 0.046875-0.6875 0-1.2266-0.17188-1.6094-0.51562-0.38672-0.35156-0.57812-0.84375-0.57812-1.4688s0.19141-1.1133 0.57812-1.4688c0.38281-0.35156 0.92188-0.53125 1.6094-0.53125 0.19531 0 0.39062 0.023437 0.57812 0.0625 0.19531 0.03125 0.39062 0.085937 0.57812 0.15625z"/>
  </symbol>
 </defs>
 <g>
  <path d="m694.45 264.23h-38.473v-160.2c0-3.0664-2.4883-5.5547-5.5547-5.5547h-234.69v-27.559c0-3.0664-2.4883-5.5547-5.5547-5.5547h-41.465v-17.223c0-3.0664-2.4883-5.5547-5.5547-5.5547h-95.219c-5.7422-7.4805-14.766-12.316-24.902-12.316h-14.594v-7.1562c0-11.414-9.2852-20.703-20.703-20.703h-46.766c-11.414 0-20.699 9.2852-20.699 20.699v7.1562h-14.594c-10.137 0-19.16 4.8359-24.902 12.316h-95.219c-3.0664 0-5.5547 2.4883-5.5547 5.5547v504.85c0 3.0664 2.4883 5.5547 5.5547 5.5547h357.6c3.0664 0 5.5547-2.4883 5.5547-5.5547v-30.039h187.88c3.0664 0 5.5547-2.4883 5.5547-5.5547v-29.051h132.3c3.0664 0 5.5547-2.4883 5.5547-5.5547v-213.01c0-3.0664-2.4883-5.5547-5.5547-5.5547zm-543.07-241.11c0-5.2891 4.3047-9.5898 9.5898-9.5898h46.766c5.2891 0 9.5898 4.3008 9.5898 9.5898v7.1562h-65.945zm-45.973 38.539c0-11.18 9.0938-20.273 20.273-20.273h117.35c11.18 0 20.273 9.0938 20.273 20.273v15.133h-157.9zm-5.5547 26.242h169.01c3.0664 0 5.5547-2.4883 5.5547-5.5547v-5.4648h58.75v447.38l-297.62-0.003907v-447.38h58.75v5.4648c0 3.0703 2.4883 5.5586 5.5586 5.5586zm402.55 21.691h26.406v97.625h-26.406zm-133.7-33.113h35.91v159.76h-35.91zm0 170.87h24.383v150.51h-24.383zm182.33 264.5h-182.33v-102.88h29.941c3.0664 0 5.5547-2.4883 5.5547-5.5547v-156.07h146.83zm5.5547-275.61h-140.86v-126.64h75.57v103.18c0 3.0664 2.4883 5.5547 5.5547 5.5547h37.516c3.0664 0 5.5547-2.4883 5.5547-5.5547v-103.18h104.94v154.64h-82.715v-22.445c0-3.0664-2.4883-5.5508-5.5547-5.5508zm28.664 39.109v109.4h-23.109v-109.4zm103.64 201.89h-126.75v-81.387h28.664c3.0664 0 5.5547-2.4883 5.5547-5.5547v-114.95h92.527z"/>
  <path d="m53.402 126.76c-3.0664 0-5.5547 2.4883-5.5547 5.5547v41.105c0 3.0664 2.4883 5.5547 5.5547 5.5547h41.105c3.0664 0 5.5547-2.4883 5.5547-5.5547v-38.801l22.668-22.668c2.1719-2.1719 2.1719-5.6875 0-7.8555-2.168-2.168-5.6875-2.168-7.8555 0l-22.668 22.664zm35.547 41.105h-29.992v-29.992h22.137l-11.066 11.066c-2.1719 2.1719-2.1719 5.6875 0 7.8555 1.082 1.0859 2.5078 1.625 3.9297 1.625s2.8438-0.54297 3.9297-1.625l11.066-11.066z"/>
  <path d="m119.3 140.73c0 3.0664 2.4883 5.5547 5.5547 5.5547h114.18c3.0664 0 5.5547-2.4883 5.5547-5.5547 0-3.0664-2.4883-5.5547-5.5547-5.5547h-114.18c-3.0664 0-5.5547 2.4883-5.5547 5.5547z"/>
  <path d="m119.3 167.38c0 3.0664 2.4883 5.5547 5.5547 5.5547h167.75c3.0664 0 5.5547-2.4883 5.5547-5.5547s-2.4883-5.5547-5.5547-5.5547h-167.75c-3.0664 0-5.5547 2.4883-5.5547 5.5547z"/>
  <path d="m53.402 262.03h41.105c3.0664 0 5.5547-2.4883 5.5547-5.5547v-38.805l22.668-22.672c2.1719-2.1719 2.1719-5.6875 0-7.8555s-5.6875-2.168-7.8555 0l-22.672 22.672-38.801-0.003906c-3.0664 0-5.5547 2.4883-5.5547 5.5547v41.105c0 3.0703 2.4844 5.5586 5.5547 5.5586zm5.5547-41.105h22.137l-11.066 11.066c-2.1719 2.1719-2.1719 5.6875 0 7.8555 1.0859 1.0859 2.5078 1.625 3.9297 1.625s2.8438-0.54297 3.9297-1.625l11.066-11.066v22.137h-29.996z"/>
  <path d="m119.3 223.78c0 3.0664 2.4883 5.5547 5.5547 5.5547h114.18c3.0664 0 5.5547-2.4883 5.5547-5.5547s-2.4883-5.5547-5.5547-5.5547h-114.18c-3.0664-0.003906-5.5547 2.4844-5.5547 5.5547z"/>
  <path d="m292.6 244.87h-167.75c-3.0664 0-5.5547 2.4883-5.5547 5.5547s2.4883 5.5547 5.5547 5.5547h167.75c3.0664 0 5.5547-2.4883 5.5547-5.5547s-2.4844-5.5547-5.5547-5.5547z"/>
  <path d="m53.402 345.07h41.105c3.0664 0 5.5547-2.4883 5.5547-5.5547v-38.805l22.668-22.672c2.1719-2.1719 2.1719-5.6875 0-7.8555s-5.6875-2.168-7.8555 0l-22.672 22.672h-38.801c-3.0664 0-5.5547 2.4883-5.5547 5.5547v41.105c0 3.0664 2.4844 5.5547 5.5547 5.5547zm5.5547-41.105h22.137l-11.066 11.066c-2.1719 2.1719-2.1719 5.6875 0 7.8555 1.0859 1.0859 2.5078 1.625 3.9297 1.625s2.8438-0.54297 3.9297-1.625l11.066-11.066v22.137l-29.996 0.003906z"/>
  <path d="m119.3 306.83c0 3.0664 2.4883 5.5547 5.5547 5.5547h114.18c3.0664 0 5.5547-2.4883 5.5547-5.5547s-2.4883-5.5547-5.5547-5.5547h-114.18c-3.0664-0.003907-5.5547 2.4844-5.5547 5.5547z"/>
  <path d="m292.6 327.91h-167.75c-3.0664 0-5.5547 2.4883-5.5547 5.5547s2.4883 5.5547 5.5547 5.5547h167.75c3.0664 0 5.5547-2.4883 5.5547-5.5547s-2.4844-5.5547-5.5547-5.5547z"/>
  <path d="m100.06 422.57v-38.805l22.668-22.672c2.1719-2.1719 2.1719-5.6875 0-7.8555s-5.6875-2.168-7.8555 0l-22.672 22.672h-38.801c-3.0664 0-5.5547 2.4883-5.5547 5.5547v41.105c0 3.0664 2.4883 5.5547 5.5547 5.5547h41.105c3.0664 0 5.5547-2.4883 5.5547-5.5547zm-11.113-5.5547h-29.992v-29.992h22.137l-11.066 11.066c-2.1719 2.1719-2.1719 5.6875 0 7.8555 1.0859 1.0859 2.5078 1.625 3.9297 1.625s2.8438-0.54297 3.9297-1.625l11.066-11.066z"/>
  <path d="m119.3 389.88c0 3.0664 2.4883 5.5547 5.5547 5.5547h114.18c3.0664 0 5.5547-2.4883 5.5547-5.5547s-2.4883-5.5547-5.5547-5.5547h-114.18c-3.0664 0-5.5547 2.4883-5.5547 5.5547z"/>
  <path d="m292.6 410.96h-167.75c-3.0664 0-5.5547 2.4883-5.5547 5.5547 0 3.0664 2.4883 5.5547 5.5547 5.5547h167.75c3.0664 0 5.5547-2.4883 5.5547-5.5547 0-3.0703-2.4844-5.5547-5.5547-5.5547z"/>
  <path d="m287.57 475.73h-211.25c-3.0664 0-5.5547 2.4883-5.5547 5.5547 0 3.0664 2.4883 5.5547 5.5547 5.5547h211.25c3.0664 0 5.5547-2.4883 5.5547-5.5547 0-3.0664-2.4883-5.5547-5.5547-5.5547z"/>
  <path d="m463.65 496.9h57.016c3.0664 0 5.5547-2.4883 5.5547-5.5547v-29.977c0-3.0664-2.4883-5.5547-5.5547-5.5547h-57.016c-3.0664 0-5.5547 2.4883-5.5547 5.5547v29.977c0 3.0664 2.4883 5.5547 5.5547 5.5547z"/>
  <path d="m580.44 252.25h46.512c3.0664 0 5.5547-2.4883 5.5547-5.5547v-29.977c0-3.0664-2.4883-5.5547-5.5547-5.5547h-46.512c-3.0664 0-5.5547 2.4883-5.5547 5.5547v29.977c0 3.0664 2.4883 5.5547 5.5547 5.5547z"/>
  <path d="m612.69 465.32h57.016c3.0664 0 5.5547-2.4883 5.5547-5.5547v-29.977c0-3.0664-2.4883-5.5547-5.5547-5.5547h-57.016c-3.0664 0-5.5547 2.4883-5.5547 5.5547v29.977c0 3.0664 2.4883 5.5547 5.5547 5.5547z"/>
  <use y="579.382812" xlink:href="#v"/>
  <use x="5.097656" y="579.382812" xlink:href="#d"/>
  <use x="8.519531" y="579.382812" xlink:href="#b"/>
  <use x="13.230469" y="579.382812" xlink:href="#l"/>
  <use x="17.917969" y="579.382812" xlink:href="#a"/>
  <use x="21.238281" y="579.382812" xlink:href="#b"/>
  <use x="25.945312" y="579.382812" xlink:href="#f"/>
  <use x="33.335937" y="579.382812" xlink:href="#k"/>
  <use x="38.304688" y="579.382812" xlink:href="#e"/>
  <use x="45.25" y="579.382812" xlink:href="#j"/>
  <use x="50.625" y="579.382812" xlink:href="#i"/>
  <use x="57.859375" y="579.382812" xlink:href="#b"/>
  <use x="62.570312" y="579.382812" xlink:href="#a"/>
  <use x="65.890625" y="579.382812" xlink:href="#h"/>
  <use x="70.835938" y="579.382812" xlink:href="#e"/>
  <use x="75.363281" y="579.382812" xlink:href="#u"/>
  <use x="79.496094" y="579.382812" xlink:href="#a"/>
  <use x="85.230469" y="579.382812" xlink:href="#t"/>
  <use x="90.234375" y="579.382812" xlink:href="#a"/>
  <use x="93.554688" y="579.382812" xlink:href="#g"/>
  <use x="98.496094" y="579.382812" xlink:href="#f"/>
  <use x="103.46875" y="579.382812" xlink:href="#s"/>
  <use x="105.847656" y="579.382812" xlink:href="#c"/>
  <use y="586.328125" xlink:href="#r"/>
  <use x="3.019531" y="586.328125" xlink:href="#d"/>
  <use x="6.445312" y="586.328125" xlink:href="#c"/>
  <use x="11.21875" y="586.328125" xlink:href="#i"/>
  <use x="20.871094" y="586.328125" xlink:href="#a"/>
  <use x="24.191406" y="586.328125" xlink:href="#h"/>
  <use x="29.132812" y="586.328125" xlink:href="#b"/>
  <use x="36.261719" y="586.328125" xlink:href="#q"/>
  <use x="42.074219" y="586.328125" xlink:href="#c"/>
  <use x="46.84375" y="586.328125" xlink:href="#g"/>
  <use x="51.789062" y="586.328125" xlink:href="#p"/>
  <use x="59.148438" y="586.328125" xlink:href="#o"/>
  <use x="64.238281" y="586.328125" xlink:href="#d"/>
  <use x="67.664062" y="586.328125" xlink:href="#c"/>
  <use x="72.433594" y="586.328125" xlink:href="#n"/>
  <use x="74.816406" y="586.328125" xlink:href="#b"/>
  <use x="79.527344" y="586.328125" xlink:href="#m"/>
  <use x="83.640625" y="586.328125" xlink:href="#a"/>
 </g>
</svg>
